<svg xmlns="http://www.w3.org/2000/svg" xmlns:xlink="http://www.w3.org/1999/xlink" width="646" height="866" viewBox="0 0 646 866">
  <defs>
    <style>
      .cls-1 {
        fill: #fff;
      }

      .cls-2 {
        opacity: 0.838;
      }

      .cls-3 {
        fill: #e6f7ff;
      }

      .cls-4 {
        fill: #90abcb;
      }

      .cls-5 {
        fill: #aab8ce;
      }

      .cls-6 {
        fill: #5a6f9f;
      }

      .cls-7 {
        filter: url(#Rectangle_5);
      }
    </style>
    <filter id="Rectangle_5" x="0" y="0" width="646" height="866" filterUnits="userSpaceOnUse">
      <feOffset dx="3" dy="3" input="SourceAlpha"/>
      <feGaussianBlur stdDeviation="25" result="blur"/>
      <feFlood/>
      <feComposite operator="in" in2="blur"/>
      <feComposite in="SourceGraphic"/>
    </filter>
  </defs>
  <g id="Group_8" data-name="Group 8" transform="translate(-68 -1157)">
    <g id="Group_5" data-name="Group 5" transform="translate(63 -33)">
      <g class="cls-7" transform="matrix(1, 0, 0, 1, 5, 1190)">
        <rect id="Rectangle_5-2" data-name="Rectangle 5" class="cls-1" width="496" height="716" rx="17" transform="translate(72 72)"/>
      </g>
      <g id="Group_2" data-name="Group 2" class="cls-2" transform="translate(-1052 168)">
        <circle id="Ellipse_1" data-name="Ellipse 1" class="cls-3" cx="165" cy="165" r="165" transform="translate(1212 1131)"/>
        <path id="Path_3" data-name="Path 3" class="cls-4" d="M740.843,1381.822c3.551-20.371-46.659-50.856,39.107-70.7s104.842-39.317,164.042,0,107.493,24.5,101.938,63.923,1.788,48.641-56.61,64.222-83.239,49.031-147.771,27.776-71.555-6.494-100.705-32.164S737.291,1402.193,740.843,1381.822Z" transform="translate(489.789 -5.862)"/>
        <rect id="Rectangle_4" data-name="Rectangle 4" class="cls-5" width="117" height="118" rx="5" transform="translate(1318 1257)"/>
        <path id="Path_4" data-name="Path 4" class="cls-6" d="M1312,1321.465h150.127l-76.4-72.564Z" transform="translate(-12 -61)"/>
      </g>
    </g>
  </g>
</svg>
