<svg xmlns="http://www.w3.org/2000/svg" xmlns:xlink="http://www.w3.org/1999/xlink" width="646" height="866" viewBox="0 0 646 866">
  <defs>
    <style>
      .cls-1, .cls-3 {
        fill: #fff;
      }

      .cls-2 {
        fill: #aab8ce;
      }

      .cls-3 {
        font-size: 150px;
        font-family: HelveticaNeue-Bold, Helvetica Neue;
        font-weight: 700;
        letter-spacing: 0.1em;
      }

      .cls-4 {
        filter: url(#Path_10);
      }
    </style>
    <filter id="Path_10" x="0" y="0" width="646" height="866" filterUnits="userSpaceOnUse">
      <feOffset dx="3" dy="3" input="SourceAlpha"/>
      <feGaussianBlur stdDeviation="25" result="blur"/>
      <feFlood/>
      <feComposite operator="in" in2="blur"/>
      <feComposite in="SourceGraphic"/>
    </filter>
  </defs>
  <g id="Group_10" data-name="Group 10" transform="translate(-68 -1157)">
    <g id="Group_5" data-name="Group 5" transform="translate(63 -33)">
      <g class="cls-4" transform="matrix(1, 0, 0, 1, 5, 1190)">
        <path id="Path_10-2" data-name="Path 10" class="cls-1" d="M17,0H479a17,17,0,0,1,17,17V699a17,17,0,0,1-17,17H17A17,17,0,0,1,0,699V17A17,17,0,0,1,17,0Z" transform="translate(72 72)"/>
      </g>
      <g id="Group_28" data-name="Group 28">
        <path id="Path_8" data-name="Path 8" class="cls-2" d="M165,0A165,165,0,1,1,0,165,165,165,0,0,1,165,0Z" transform="translate(160 1316)"/>
        <g id="Group_22" data-name="Group 22" transform="translate(0 -6)">
          <text id="_" data-name="/" class="cls-3" transform="translate(325 1538)"><tspan x="-27.825" y="0">/</tspan></text>
          <g id="Group_21" data-name="Group 21" transform="translate(-140 28)">
            <text id="_2" data-name="&gt;" class="cls-3" transform="translate(452 1350)"><tspan x="58" y="146">&gt;</tspan></text>
            <text id="_3" data-name="&lt;" class="cls-3" transform="translate(273 1350)"><tspan x="58" y="146">&lt;</tspan></text>
          </g>
        </g>
      </g>
    </g>
  </g>
</svg>
